<svg xmlns="http://www.w3.org/2000/svg" viewBox="0 0 64 64">
  <rect width="64" height="64" rx="12" fill="#1877F2"/>
  <path d="M32 12c-8.8 0-16 7.2-16 16 0 4.4 1.8 8.4 4.7 11.3-.3 1.2-.7 2.4-1.2 3.5-.5 1.1-.2 2.4.7 3.2.9.8 2.2.9 3.2.3 1.3-.8 2.7-1.4 4.2-1.8.8 1.9 2.7 3.3 4.9 3.3 2.2 0 4.1-1.4 4.9-3.3 1.5.4 2.9 1 4.2 1.8 1 .6 2.3.5 3.2-.3.9-.8 1.2-2.1.7-3.2-.5-1.1-.9-2.3-1.2-3.5 2.9-2.9 4.7-6.9 4.7-11.3 0-8.8-7.2-16-16-16zm-6 16c0-1.1.9-2 2-2s2 .9 2 2-.9 2-2 2-2-.9-2-2zm12 0c0-1.1.9-2 2-2s2 .9 2 2-.9 2-2 2-2-.9-2-2zm-6 8c-2.2 0-4-1.8-4-4s1.8-4 4-4 4 1.8 4 4-1.8 4-4 4z" fill="white"/>
  <path d="M28 24c0-1.1.9-2 2-2s2 .9 2 2-.9 2-2 2-2-.9-2-2zm8 0c0-1.1.9-2 2-2s2 .9 2 2-.9 2-2 2-2-.9-2-2z" fill="#1877F2"/>
</svg>
