<svg xmlns="http://www.w3.org/2000/svg" viewBox="0 0 64 64">
  <rect width="64" height="64" rx="12" fill="#1877F2"/>
  <g fill="white">
    <!-- Brain outline -->
    <path d="M32 12c-8.8 0-16 7.2-16 16 0 4.4 1.8 8.4 4.7 11.3C20.8 40.2 20 41.5 20 43c0 2.8 2.2 5 5 5h14c2.8 0 5-2.2 5-5 0-1.5-.8-2.8-2.7-3.7C44.2 36.4 46 32.4 46 28c0-8.8-7.2-16-16-16z"/>
    <!-- Brain folds -->
    <path d="M24 22c2 0 2 4 0 4s-2-4 0-4zm8 0c2 0 2 4 0 4s-2-4 0-4zm8 0c2 0 2 4 0 4s-2-4 0-4z"/>
    <path d="M20 30c3 0 3 6 0 6s-3-6 0-6zm12 0c3 0 3 6 0 6s-3-6 0-6zm12 0c3 0 3 6 0 6s-3-6 0-6z"/>
    <!-- Eyes -->
    <circle cx="26" cy="26" r="2" fill="#1877F2"/>
    <circle cx="38" cy="26" r="2" fill="#1877F2"/>
    <!-- Smile -->
    <path d="M28 34c0 2.2 1.8 4 4 4s4-1.8 4-4" stroke="#1877F2" stroke-width="2" fill="none"/>
  </g>
</svg>
