<svg xmlns="http://www.w3.org/2000/svg" viewBox="0 0 64 64">
  <rect width="64" height="64" rx="12" fill="#1877F2"/>
  <path d="M32 8c-12 0-22 10-22 22 0 6 2.5 11.5 6.5 15.5-.5 1.5-1 3-1.5 4.5-.5 1.5 0 3 1 4 1 1 2.5 1 3.5.5 1.5-1 3-2 4.5-2.5 1 2.5 3.5 4 6 4 2.5 0 5-1.5 6-4 1.5.5 3 1.5 4.5 2.5 1 .5 2.5.5 3.5-.5 1-1 1.5-2.5 1-4-.5-1.5-1-3-1.5-4.5 4-4 6.5-9.5 6.5-15.5 0-12-10-22-22-22z" fill="white"/>
  <path d="M24 26c0-1.5 1.5-3 3-3s3 1.5 3 3-1.5 3-3 3-3-1.5-3-3zm16 0c0-1.5 1.5-3 3-3s3 1.5 3 3-1.5 3-3 3-3-1.5-3-3zm-8 10c-3 0-5.5-2.5-5.5-5.5s2.5-5.5 5.5-5.5 5.5 2.5 5.5 5.5-2.5 5.5-5.5 5.5z" fill="#1877F2"/>
  <path d="M20 30c1 0 2 1 2 2s-1 2-2 2-2-1-2-2 1-2 2-2zm24 0c1 0 2 1 2 2s-1 2-2 2-2-1-2-2 1-2 2-2z" fill="#1877F2"/>
</svg>
